<svg width="94" height="9" viewBox="0 0 94 9" fill="none" xmlns="http://www.w3.org/2000/svg">
<path d="M1.97714 8.84668H-0.000133149L3.01265 0.119407H5.39049L8.39901 8.84668H6.42174L4.23566 2.11372H4.16748L1.97714 8.84668ZM1.85356 5.41628H6.52401V6.85662H1.85356V5.41628ZM14.8401 0.119407H16.6852V5.78702C16.6852 6.42338 16.5332 6.9802 16.2293 7.45748C15.9281 7.93475 15.5063 8.30691 14.9636 8.57395C14.421 8.83816 13.7889 8.97026 13.0673 8.97026C12.3429 8.97026 11.7094 8.83816 11.1668 8.57395C10.6242 8.30691 10.2023 7.93475 9.90115 7.45748C9.60001 6.9802 9.44944 6.42338 9.44944 5.78702V0.119407H11.2946V5.62935C11.2946 5.96174 11.3671 6.25719 11.5119 6.51571C11.6597 6.77424 11.8671 6.97736 12.1341 7.12509C12.4011 7.27282 12.7122 7.34668 13.0673 7.34668C13.4253 7.34668 13.7364 7.27282 14.0006 7.12509C14.2676 6.97736 14.4736 6.77424 14.6185 6.51571C14.7662 6.25719 14.8401 5.96174 14.8401 5.62935V0.119407ZM17.871 1.64071V0.119407H25.0386V1.64071H22.3667V8.84668H20.5428V1.64071H17.871ZM33.8404 4.48304C33.8404 5.43475 33.66 6.24441 33.2992 6.91202C32.9413 7.57963 32.4526 8.08958 31.8333 8.44185C31.2168 8.79128 30.5237 8.966 29.7538 8.966C28.9782 8.966 28.2822 8.78986 27.6657 8.43759C27.0492 8.08532 26.562 7.57537 26.2041 6.90776C25.8461 6.24015 25.6671 5.43191 25.6671 4.48304C25.6671 3.53134 25.8461 2.72168 26.2041 2.05407C26.562 1.38645 27.0492 0.877929 27.6657 0.528498C28.2822 0.176225 28.9782 8.84533e-05 29.7538 8.84533e-05C30.5237 8.84533e-05 31.2168 0.176225 31.8333 0.528498C32.4526 0.877929 32.9413 1.38645 33.2992 2.05407C33.66 2.72168 33.8404 3.53134 33.8404 4.48304ZM31.9697 4.48304C31.9697 3.86657 31.8774 3.34668 31.6927 2.92338C31.5109 2.50009 31.2538 2.17907 30.9214 1.96032C30.589 1.74157 30.1998 1.63219 29.7538 1.63219C29.3078 1.63219 28.9185 1.74157 28.5862 1.96032C28.2538 2.17907 27.9953 2.50009 27.8106 2.92338C27.6288 3.34668 27.5379 3.86657 27.5379 4.48304C27.5379 5.09952 27.6288 5.61941 27.8106 6.0427C27.9953 6.466 28.2538 6.78702 28.5862 7.00577C28.9185 7.22452 29.3078 7.3339 29.7538 7.3339C30.1998 7.3339 30.589 7.22452 30.9214 7.00577C31.2538 6.78702 31.5109 6.466 31.6927 6.0427C31.8774 5.61941 31.9697 5.09952 31.9697 4.48304Z" fill="white"/>
<path d="M39.9416 2.62935C39.9075 2.2856 39.7612 2.01855 39.5027 1.82821C39.2442 1.63787 38.8933 1.5427 38.4502 1.5427C38.149 1.5427 37.8948 1.58532 37.6874 1.67054C37.48 1.75293 37.3209 1.86799 37.2101 2.01571C37.1021 2.16344 37.0482 2.33105 37.0482 2.51855C37.0425 2.6748 37.0752 2.81117 37.1462 2.92765C37.22 3.04412 37.3209 3.14498 37.4487 3.2302C37.5766 3.31259 37.7243 3.38503 37.8919 3.44753C38.0595 3.50719 38.2385 3.55833 38.4288 3.60094L39.2129 3.78844C39.5936 3.87367 39.943 3.9873 40.2612 4.12935C40.5794 4.2714 40.855 4.44611 41.0879 4.6535C41.3209 4.86088 41.5013 5.1052 41.6291 5.38645C41.7598 5.6677 41.8266 5.99015 41.8294 6.35378C41.8266 6.88787 41.6902 7.35094 41.4203 7.74299C41.1533 8.13219 40.7669 8.43475 40.2612 8.65066C39.7584 8.86373 39.1519 8.97026 38.4416 8.97026C37.7371 8.97026 37.1234 8.8623 36.6007 8.6464C36.0808 8.43049 35.6746 8.11088 35.382 7.68759C35.0922 7.26145 34.9402 6.73446 34.926 6.10662H36.7115C36.7314 6.39924 36.8152 6.64355 36.9629 6.83958C37.1135 7.03276 37.3138 7.17907 37.5638 7.2785C37.8166 7.37509 38.1021 7.42338 38.4203 7.42338C38.7328 7.42338 39.0041 7.37793 39.2342 7.28702C39.4672 7.19611 39.6476 7.06969 39.7754 6.90776C39.9033 6.74583 39.9672 6.55975 39.9672 6.34952C39.9672 6.1535 39.909 5.98873 39.7925 5.8552C39.6788 5.72168 39.5112 5.60804 39.2896 5.51429C39.0709 5.42054 38.8024 5.33532 38.4842 5.25861L37.534 5.01997C36.7982 4.841 36.2172 4.56117 35.7911 4.18049C35.3649 3.7998 35.1533 3.28702 35.1561 2.64213C35.1533 2.11372 35.2939 1.65208 35.578 1.25719C35.8649 0.862305 36.2584 0.554066 36.7584 0.332475C37.2584 0.110884 37.8266 8.84533e-05 38.4629 8.84533e-05C39.1107 8.84533e-05 39.676 0.110884 40.159 0.332475C40.6448 0.554066 41.0226 0.862305 41.2925 1.25719C41.5624 1.65208 41.7016 2.10946 41.7101 2.62935H39.9416ZM44.3756 8.84668H42.3983L45.4111 0.119407H47.7889L50.7975 8.84668H48.8202L46.6341 2.11372H46.5659L44.3756 8.84668ZM44.252 5.41628H48.9225V6.85662H44.252V5.41628ZM59.1476 0.119407V8.84668H57.5538L53.757 3.35378H53.693V8.84668H51.8479V0.119407H53.4672L57.2342 5.60804H57.3109V0.119407H59.1476ZM60.3397 1.64071V0.119407H67.5073V1.64071H64.8354V8.84668H63.0116V1.64071H60.3397ZM69.1256 8.84668H67.1483L70.1611 0.119407H72.5389L75.5475 8.84668H73.5702L71.3841 2.11372H71.3159L69.1256 8.84668ZM69.002 5.41628H73.6725V6.85662H69.002V5.41628ZM83.8976 0.119407V8.84668H82.3038L78.507 3.35378H78.443V8.84668H76.5979V0.119407H78.2172L81.9842 5.60804H82.0609V0.119407H83.8976ZM86.9264 8.84668H84.9491L87.9619 0.119407H90.3397L93.3482 8.84668H91.371L89.1849 2.11372H89.1167L86.9264 8.84668ZM86.8028 5.41628H91.4732V6.85662H86.8028V5.41628Z" fill="#FFCE31"/>
</svg>
